{
    "asset" : {
        "generator" : "Khronos glTF Blender I/O v3.2.43",
        "version" : "2.0"
    },
    "extensionsUsed" : [
        "KHR_materials_transmission"
    ],
    "scene" : 0,
    "scenes" : [
        {
            "name" : "Scene",
            "nodes" : [
                0
            ]
        }
    ],
    "nodes" : [
        {
            "mesh" : 0,
            "name" : "Cube",
            "scale" : [
                4.120519161224365,
                9.681446075439453,
                4.120519161224365
            ],
            "translation" : [
                0,
                6.780983924865723,
                0
            ]
        }
    ],
    "materials" : [
        {
            "doubleSided" : true,
            "name" : "Monitor",
            "pbrMetallicRoughness" : {
                "baseColorTexture" : {
                    "index" : 0
                },
                "metallicFactor" : 0,
                "roughnessFactor" : 0.5
            }
        },
        {
            "doubleSided" : true,
            "extensions" : {
                "KHR_materials_transmission" : {
                    "transmissionFactor" : 0.16727280616760254
                }
            },
            "name" : "Material",
            "pbrMetallicRoughness" : {
                "baseColorTexture" : {
                    "index" : 1
                },
                "metallicFactor" : 0,
                "roughnessFactor" : 0.6367306113243103
            }
        },
        {
            "doubleSided" : true,
            "emissiveFactor" : [
                0.1314527988433838,
                0.6352372169494629,
                1
            ],
            "name" : "Material.001",
            "pbrMetallicRoughness" : {
                "baseColorFactor" : [
                    0.0151778943836689,
                    0.4688311517238617,
                    0.8000000715255737,
                    1
                ],
                "metallicFactor" : 0,
                "roughnessFactor" : 0.5
            }
        },
        {
            "doubleSided" : true,
            "emissiveFactor" : [
                1,
                1,
                1
            ],
            "emissiveTexture" : {
                "index" : 2
            },
            "name" : "Signs",
            "pbrMetallicRoughness" : {
                "baseColorTexture" : {
                    "index" : 3
                },
                "metallicFactor" : 0,
                "roughnessFactor" : 0.5
            }
        }
    ],
    "meshes" : [
        {
            "name" : "Cube",
            "primitives" : [
                {
                    "attributes" : {
                        "POSITION" : 0,
                        "NORMAL" : 1,
                        "TEXCOORD_0" : 2
                    },
                    "indices" : 3,
                    "material" : 0
                },
                {
                    "attributes" : {
                        "POSITION" : 4,
                        "NORMAL" : 5,
                        "TEXCOORD_0" : 6
                    },
                    "indices" : 3,
                    "material" : 0
                },
                {
                    "attributes" : {
                        "POSITION" : 7,
                        "NORMAL" : 8,
                        "TEXCOORD_0" : 9
                    },
                    "indices" : 10,
                    "material" : 1
                },
                {
                    "attributes" : {
                        "POSITION" : 11,
                        "NORMAL" : 12,
                        "TEXCOORD_0" : 13
                    },
                    "indices" : 14,
                    "material" : 2
                },
                {
                    "attributes" : {
                        "POSITION" : 15,
                        "NORMAL" : 16,
                        "TEXCOORD_0" : 17
                    },
                    "indices" : 18,
                    "material" : 3
                }
            ]
        }
    ],
    "textures" : [
        {
            "sampler" : 0,
            "source" : 0
        },
        {
            "sampler" : 0,
            "source" : 1
        },
        {
            "sampler" : 0,
            "source" : 2
        },
        {
            "sampler" : 0,
            "source" : 2
        }
    ],
    "images" : [
        {
            "bufferView" : 4,
            "mimeType" : "image/png",
            "name" : "wp4470754"
        },
        {
            "bufferView" : 12,
            "mimeType" : "image/jpeg",
            "name" : "Asphalt025C_1K-JPG_Color"
        },
        {
            "bufferView" : 21,
            "mimeType" : "image/jpeg",
            "name" : "SignsNeon0037_350"
        }
    ],
    "accessors" : [
        {
            "bufferView" : 0,
            "componentType" : 5126,
            "count" : 4,
            "max" : [
                1.325467824935913,
                0.6859782338142395,
                1.360098958015442
            ],
            "min" : [
                -1.325467824935913,
                0.04129469394683838,
                1.360098958015442
            ],
            "type" : "VEC3"
        },
        {
            "bufferView" : 1,
            "componentType" : 5126,
            "count" : 4,
            "type" : "VEC3"
        },
        {
            "bufferView" : 2,
            "componentType" : 5126,
            "count" : 4,
            "type" : "VEC2"
        },
        {
            "bufferView" : 3,
            "componentType" : 5123,
            "count" : 6,
            "type" : "SCALAR"
        },
        {
            "bufferView" : 5,
            "componentType" : 5126,
            "count" : 4,
            "max" : [
                1.1355435848236084,
                0.9623306393623352,
                1.3083505630493164
            ],
            "min" : [
                -1.1371333599090576,
                0.8448721766471863,
                1.3083505630493164
            ],
            "type" : "VEC3"
        },
        {
            "bufferView" : 6,
            "componentType" : 5126,
            "count" : 4,
            "type" : "VEC3"
        },
        {
            "bufferView" : 7,
            "componentType" : 5126,
            "count" : 4,
            "type" : "VEC2"
        },
        {
            "bufferView" : 8,
            "componentType" : 5126,
            "count" : 1225,
            "max" : [
                1.325467824935913,
                2.5713348388671875,
                1.360098958015442
            ],
            "min" : [
                -2.577691078186035,
                -1,
                -1.0000001192092896
            ],
            "type" : "VEC3"
        },
        {
            "bufferView" : 9,
            "componentType" : 5126,
            "count" : 1225,
            "type" : "VEC3"
        },
        {
            "bufferView" : 10,
            "componentType" : 5126,
            "count" : 1225,
            "type" : "VEC2"
        },
        {
            "bufferView" : 11,
            "componentType" : 5123,
            "count" : 2034,
            "type" : "SCALAR"
        },
        {
            "bufferView" : 13,
            "componentType" : 5126,
            "count" : 52,
            "max" : [
                1.1578311920166016,
                1.4785206317901611,
                1.2223212718963623
            ],
            "min" : [
                -1.839726209640503,
                -0.8181818127632141,
                0.717732310295105
            ],
            "type" : "VEC3"
        },
        {
            "bufferView" : 14,
            "componentType" : 5126,
            "count" : 52,
            "type" : "VEC3"
        },
        {
            "bufferView" : 15,
            "componentType" : 5126,
            "count" : 52,
            "type" : "VEC2"
        },
        {
            "bufferView" : 16,
            "componentType" : 5123,
            "count" : 78,
            "type" : "SCALAR"
        },
        {
            "bufferView" : 17,
            "componentType" : 5126,
            "count" : 12,
            "max" : [
                -1.3253945112228394,
                1.0704550743103027,
                1.1465849876403809
            ],
            "min" : [
                -1.9342783689498901,
                -0.889819324016571,
                0.8781304955482483
            ],
            "type" : "VEC3"
        },
        {
            "bufferView" : 18,
            "componentType" : 5126,
            "count" : 12,
            "type" : "VEC3"
        },
        {
            "bufferView" : 19,
            "componentType" : 5126,
            "count" : 12,
            "type" : "VEC2"
        },
        {
            "bufferView" : 20,
            "componentType" : 5123,
            "count" : 18,
            "type" : "SCALAR"
        }
    ],
    "bufferViews" : [
        {
            "buffer" : 0,
            "byteLength" : 48,
            "byteOffset" : 0
        },
        {
            "buffer" : 0,
            "byteLength" : 48,
            "byteOffset" : 48
        },
        {
            "buffer" : 0,
            "byteLength" : 32,
            "byteOffset" : 96
        },
        {
            "buffer" : 0,
            "byteLength" : 12,
            "byteOffset" : 128
        },
        {
            "buffer" : 0,
            "byteLength" : 1148459,
            "byteOffset" : 140
        },
        {
            "buffer" : 0,
            "byteLength" : 48,
            "byteOffset" : 1148600
        },
        {
            "buffer" : 0,
            "byteLength" : 48,
            "byteOffset" : 1148648
        },
        {
            "buffer" : 0,
            "byteLength" : 32,
            "byteOffset" : 1148696
        },
        {
            "buffer" : 0,
            "byteLength" : 14700,
            "byteOffset" : 1148728
        },
        {
            "buffer" : 0,
            "byteLength" : 14700,
            "byteOffset" : 1163428
        },
        {
            "buffer" : 0,
            "byteLength" : 9800,
            "byteOffset" : 1178128
        },
        {
            "buffer" : 0,
            "byteLength" : 4068,
            "byteOffset" : 1187928
        },
        {
            "buffer" : 0,
            "byteLength" : 1064676,
            "byteOffset" : 1191996
        },
        {
            "buffer" : 0,
            "byteLength" : 624,
            "byteOffset" : 2256672
        },
        {
            "buffer" : 0,
            "byteLength" : 624,
            "byteOffset" : 2257296
        },
        {
            "buffer" : 0,
            "byteLength" : 416,
            "byteOffset" : 2257920
        },
        {
            "buffer" : 0,
            "byteLength" : 156,
            "byteOffset" : 2258336
        },
        {
            "buffer" : 0,
            "byteLength" : 144,
            "byteOffset" : 2258492
        },
        {
            "buffer" : 0,
            "byteLength" : 144,
            "byteOffset" : 2258636
        },
        {
            "buffer" : 0,
            "byteLength" : 96,
            "byteOffset" : 2258780
        },
        {
            "buffer" : 0,
            "byteLength" : 36,
            "byteOffset" : 2258876
        },
        {
            "buffer" : 0,
            "byteLength" : 53200,
            "byteOffset" : 2258912
        }
    ],
    "samplers" : [
        {
            "magFilter" : 9729,
            "minFilter" : 9987
        }
    ],
    "buffers" : [
        {
            "byteLength" : 2312112,
            "uri" : "data:application/octet-stream;base64,"
        }
    ]
}
